<svg xmlns="http://www.w3.org/2000/svg" viewBox="0 0 1125 2436"><defs><style>.cls-1{font-size:58.88px;font-family:Poppins-SemiBold, Poppins SemiBold;font-weight:600;}.cls-1,.cls-12,.cls-13,.cls-8{fill:#1abc9c;}.cls-2{letter-spacing:-0.01em;}.cls-3,.cls-5,.cls-6,.cls-7{font-size:42.35px;fill:#363738;font-family:Poppins-Medium, Poppins Medium;font-weight:500;}.cls-3{letter-spacing:0.15em;}.cls-4{letter-spacing:0.17em;}.cls-5{letter-spacing:0.17em;}.cls-6{letter-spacing:0.17em;}.cls-7{letter-spacing:0.17em;}.cls-8{font-size:54.45px;letter-spacing:0.17em;}.cls-11,.cls-9{fill:none;}.cls-10,.cls-11,.cls-12,.cls-9{stroke:#363738;stroke-miterlimit:10;}.cls-10,.cls-9{stroke-width:6.05px;}.cls-10{fill:#fff;}.cls-11{stroke-width:3.63px;}.cls-12{stroke-width:3.02px;}.cls-14{fill:#232020;}</style></defs><g id="Layer_4" data-name="Layer 4"><text class="cls-1" transform="translate(400.1 1361.99)"><tspan class="cls-2">A</tspan><tspan x="35.33" y="0">dd a book </tspan></text><text class="cls-3" transform="translate(410.02 1407.89) scale(0.7)">B<tspan class="cls-4" x="29.39" y="0">Y</tspan></text><text class="cls-5" transform="translate(451.58 1407.89)"> </text><text class="cls-6" transform="translate(467.63 1407.89) scale(0.7)">PRESSING</text><text class="cls-7" transform="translate(628.52 1407.89)"> <tspan class="cls-8" x="16.05" y="0">+</tspan></text><path class="cls-9" d="M709.73,1141.11a39.13,39.13,0,0,1-39.11,39.11H390.9v-11h12.82a28.15,28.15,0,1,0,0-56.29H390.9v-11H670.62A39.11,39.11,0,0,1,709.73,1141.11Z"/><path class="cls-10" d="M697.6,1141.11a28.13,28.13,0,0,1-28.16,28.13H403.72a28.15,28.15,0,1,0,0-56.29H669.44A28.16,28.16,0,0,1,697.6,1141.11Z"/><path class="cls-9" d="M431.45,1141.11h37.22"/><path class="cls-9" d="M503.37,1141.11h19.28"/><path class="cls-9" d="M531.13,1141.11h88.69"/><path class="cls-9" d="M631.39,1141.11h64.33"/><path class="cls-9" d="M691.39,1126.37H654.8"/><path class="cls-9" d="M620.67,1126.37h-19"/><path class="cls-9" d="M593.37,1126.37h-87.2"/><path class="cls-9" d="M494.79,1126.37H431.53"/><path class="cls-9" d="M691.39,1154H654.8"/><path class="cls-9" d="M620.67,1154h-19"/><path class="cls-9" d="M593.37,1154h-87.2"/><path class="cls-9" d="M494.79,1154H431.53"/><path class="cls-9" d="M695.73,1180.44v15.88a42.33,42.33,0,0,0,0,84v15.88h-263a57.9,57.9,0,0,1,0-115.79Z"/><path class="cls-11" d="M670.92,1208.39a42.34,42.34,0,0,0,24.81,72v.33H442.32a42.35,42.35,0,1,1,0-84.7H695.73v.34A42.18,42.18,0,0,0,670.92,1208.39Z"/><path class="cls-9" d="M670.92,1208.39a42.34,42.34,0,0,0,24.81,72v.33H442.32a42.35,42.35,0,1,1,0-84.7H695.73v.34A42.18,42.18,0,0,0,670.92,1208.39Z"/><path class="cls-11" d="M663.55,1218.3H507.94"/><path class="cls-11" d="M492.2,1218.3H468.67"/><path class="cls-11" d="M668.05,1264.83H552.92"/><path class="cls-11" d="M535.38,1264.83H473.16"/><line class="cls-11" x1="400.58" y1="1242.79" x2="536.76" y2="1242.79"/><polygon class="cls-12" points="609.26 1259.14 593.37 1239.48 577.49 1259.14 577.49 1197.96 609.26 1197.96 609.26 1259.14"/><path class="cls-13" d="M534.43,1046.88l7-33.65h18.7l5.31,35.14s-5.84-4.32-15.52-3.67a23.65,23.65,0,0,0-15,6.36Z"/><path class="cls-13" d="M565.46,1048.37l-5.31-35.14h13.51l10.67,1.22s2.33,9.35,2.95,11.54-1.09,17.15-1.09,17.15,1.25,5.3-3.58,7S564.21,1051.11,565.46,1048.37Z"/><path class="cls-13" d="M517.42,1046.57,516,1013.23h23.43s.27,14.17-1.13,18.53-5.77,20.73-5.77,20.73S514.6,1053.74,517.42,1046.57Z"/><path class="cls-14" d="M588.81,1042.28c.13-8.46.84-17.14.38-25.58-.44-8.11-9.6-6.52-15.37-6.52H562.59q-.23-3.28-.38-6.58c-.07-1.83-.13-3.66-.15-5.49,2,.62,3.86-1.13,5.2-2.94,2-2.67,3.21-6,2.33-9.38a8.05,8.05,0,0,0-2.89-4.29c2.52-4.25,4.52-9.3,1.59-13.88s-9.23-5.25-14.22-5.68c-5.61-.48-12.89-1.08-18.17,1.32-4.95,2.23-5.95,7.67-3.89,12.36a31.24,31.24,0,0,0,3.29,5.2,12.13,12.13,0,0,0-4.48,5.4c-3,7.09,2.6,13,8.13,16.67l.19.11q-.1,3.59-.34,7.19H516a2.43,2.43,0,0,0-3.66,2.11q.4,12.93.79,25.84c.11,3.55-.28,7.63.51,11.1s3.17,4.55,6.35,4.9c6.32.68,14,2.25,19.53-1.83,3-2.21,5.08-4.21,9-4.55a29.43,29.43,0,0,1,10.58.68c3,.9,4.57,4,7.61,4.62,3.59.77,8-.19,11.62-.39,2.66-.15,6.31.33,8.51-1.48C589.32,1049.15,588.77,1045.11,588.81,1042.28Zm-26.06-49.2a2.14,2.14,0,0,0-.62,0,17.31,17.31,0,0,1,1.94-7.21,3.16,3.16,0,0,1,.77,1.71C565,988.86,564.14,992,562.75,993.08Zm-14.41-26.4c4.15,0,13.41-.53,15.88,3.81,1.54,2.71.09,5.86-1.78,8.84-4.11-1.35-9.07-1.51-12.48-1.63a32.37,32.37,0,0,0-10.1,1,32.24,32.24,0,0,1-3.16-4.82C533.1,966.3,543.57,966.66,548.34,966.68ZM535.11,989a6.66,6.66,0,0,1,2.61-3.8,25.53,25.53,0,0,1,1.41,8.28q0,1.75.06,3.51C536.65,995,534.3,992.25,535.11,989Zm8.6-.31a24.22,24.22,0,0,0-1.41-5.46,22.43,22.43,0,0,1,3.83-.51,47.07,47.07,0,0,1,13.33,1.24,12.27,12.27,0,0,0-.94,1.83c-2.27,5.65-1.53,12.51-1.27,18.45.09,2,.21,4,.35,6h-14c.1-1.47.18-2.94.26-4.41C544.1,1000.11,544.52,994.3,543.71,988.66ZM545,1043.3a15.59,15.59,0,0,0-6.6,3.48,11.43,11.43,0,0,1-8.64,3.17c-1.66,0-3.31-.21-5-.36-1.3-.12-3.57.1-4.76-.43-2.35-1.06-1.66-4-1.72-6.08s-.13-4.11-.19-6.16l-.66-21.74h21c-.88,9-4.49,27.31-6.84,35.9-.84,3.1,3.52,3.8,4.37.7,2.5-9.14,6.42-27.18,7.26-36.6H558c.86,9.64,2.2,19.23,3.48,28.81-.35-.12-.71-.24-1.07-.34A32.48,32.48,0,0,0,545,1043.3Zm39.17-20.78-.18,11.11-.15,9.89c0,1.71.48,3.41-1.39,4-1.53.44-3.66.2-5.26.28-2.69.15-7.2,1.24-9.65.12a4.37,4.37,0,0,1-.55-.32c-1.41-10.77-3-21.55-4-32.38,5.89,0,11.77,0,17.65,0,1.82,0,3.12-.23,3.56,2C584.53,1018.75,584.15,1020.85,584.13,1022.52Z"/></g></svg>